<?xml version="1.0" encoding="UTF-8"?>
<svg id="Capa_2" xmlns="http://www.w3.org/2000/svg" viewBox="0 0 334.2 334.2">
  <defs>
    <style>
      .cls-1 {
        fill: #221f1f;
      }

      .cls-2 {
        fill: #f90;
      }

      .cls-2, .cls-3 {
        fill-rule: evenodd;
      }

      .cls-3 {
        fill: #fff;
      }
    </style>
  </defs>
  <g id="Capa_1-2" data-name="Capa_1">
    <g>
      <rect class="cls-1" x="0" y="0" width="334.2" height="334.2" rx="167.1" ry="167.1"/>
      <g>
        <path class="cls-2" d="M249.4,249.8c-22.3,16.5-54.7,25.2-82.5,25.2s-74.2-14.4-100.8-38.5c-2-1.9-.2-4.5,2.3-3,28.7,16.7,64.2,26.8,100.8,26.8,26.4-.1,52.6-5.5,76.9-15.7,3.8-1.6,6.9,2.5,3.2,5.2M258.7,239.2c-2.8-3.6-18.9-1.7-26-.9-2.2.3-2.5-1.6-.6-3,12.8-9,33.7-6.4,36.1-3.4s-.6,24-12.6,34c-1.8,1.5-3.6.7-2.7-1.3,2.7-6.7,8.7-21.8,5.9-25.4"/>
        <path class="cls-3" d="M182.7,152.7c0,11.4.3,20.9-5.5,31.1-4.7,8.2-12.1,13.3-20.3,13.3s-17.8-8.6-17.8-21.2c0-25,22.4-29.5,43.6-29.5v6.3M212.3,224.1c-1.9,1.7-4.7,1.9-6.9.7-9.7-8.1-11.5-11.8-16.8-19.5-16.1,16.4-27.5,21.3-48.3,21.3s-43.8-15.2-43.8-45.6,12.8-39.9,31.2-47.9c15.9-7,38.1-8.2,55.1-10.1v-3.7c0-7,.5-15.2-3.6-21.2-3.5-5.4-10.4-7.6-16.4-7.6-11.2,0-21.1,5.7-23.5,17.6-.5,2.7-2.4,5.2-5.1,5.4l-28.5-3.2c-2.4-.5-5.1-2.5-4.4-6.1,6.6-34.5,37.7-44.9,65.6-44.9s32.9,3.8,44.1,14.6c14.2,13.3,12.9,31.1,12.9,50.4v45.6c0,13.7,5.7,19.7,11,27.1,1.9,2.7,2.3,5.8-.1,7.8-7.6,6.4-15,12.9-22.4,19.4h0"/>
      </g>
    </g>
  </g>
</svg>