<?xml version="1.0" encoding="UTF-8"?>
<svg id="Capa_2" xmlns="http://www.w3.org/2000/svg" viewBox="0 0 334.2 334.2">
  <defs>
    <style>
      .cls-1 {
        fill: #fff;
      }

      .cls-2 {
        fill: #ffe600;
      }

      .cls-3 {
        fill: #2d3277;
      }
    </style>
  </defs>
  <g id="Capa_1-2" data-name="Capa_1">
    <g>
      <rect class="cls-2" x="0" y="0" width="334.2" height="334.2" rx="167.1" ry="167.1"/>
      <g>
        <path class="cls-3" d="M310.9,161.7c0-51.7-64.4-94-143.8-94S23.3,110,23.3,161.7v5.4c0,55,56.2,99.4,143.8,99.4s143.8-44.4,143.8-99.4v-5.4Z"/>
        <path class="cls-2" d="M305.8,161.7c0,48.6-61.9,88.2-138.1,88.2S29.6,210.3,29.6,161.7s61.9-88.2,138.1-88.2,138.1,39.6,138.1,88.2Z"/>
        <g>
          <path class="cls-1" d="M121.8,133.9s-1.5,1.5-.6,2.7c2.1,2.7,8.8,4.2,15.7,2.7,3.9-.9,9.4-5.1,14.2-9.1,5.4-4.2,10.9-8.8,16.3-10.3,5.7-1.8,9.4-.9,11.8-.3,2.7.9,5.7,2.7,10.9,6.3,9.4,6.9,47.4,40.2,54.1,45.9,5.1-2.4,28.7-12.4,60.7-19.6-2.7-16.9-13-32.6-28.7-45.3-21.8,9.1-48.6,13.9-74.9,1.2,0,0-14.2-6.6-28.4-6.3-20.8.6-29.6,9.4-39.3,19l-11.8,13Z"/>
          <path class="cls-1" d="M242.6,175.6c-.3-.3-44.7-39-54.7-46.5-5.7-4.2-9.1-5.4-12.4-6-1.8-.3-4.2,0-6,.6-4.5,1.2-10.9,5.4-16.3,9.7-5.7,4.5-10.9,8.8-15.7,9.7-6.3,1.5-13.9-.3-17.2-2.7-1.5-.9-2.4-2.1-3-3.3-1.2-3,1.2-5.4,1.5-5.7l12.1-13.3,4.2-4.2c-3.9.6-7.6,1.5-11.2,2.4-4.5,1.2-8.8,2.4-13,2.4s-11.5-1.5-13.3-2.1c-11.2-3-20.8-6-35.3-12.7-17.2,13-29,29-32.3,46.8,2.4.6,6.6,1.8,8.2,2.1,39.3,8.8,51.4,17.8,53.8,19.6,2.4-2.7,5.7-4.2,9.7-4.2s8.2,2.1,10.6,5.4c2.1-1.8,5.4-3.3,9.4-3.3s3.6.3,5.7.9c4.5,1.5,6.6,4.5,7.9,7.3,1.5-.6,3.3-1.2,5.4-1.2s4.2.6,6.6,1.5c7.3,3,8.5,10.3,7.9,15.7h1.5c8.8,0,15.7,6.9,15.7,15.7s-.6,5.1-1.8,7.3c2.4,1.2,8.2,4.2,13.6,3.6,4.2-.6,5.7-1.8,6.3-2.7.3-.6.9-1.2.3-1.8l-11.2-12.4s-1.8-1.8-1.2-2.4,1.8.3,2.7.9c5.7,4.8,12.4,11.8,12.4,11.8,0,0,.6.9,3,1.5,2.1.3,6,0,8.8-2.1.6-.6,1.5-1.2,1.8-1.8,2.7-3.6-.3-7.3-.3-7.3l-13-14.5s-1.8-1.8-1.2-2.4,1.8.3,2.7.9c4.2,3.3,10,9.4,15.4,14.8,1.2.9,6,3.9,12.4-.3,3.9-2.7,4.8-5.7,4.5-8.2-.3-3-2.7-5.4-2.7-5.4l-17.5-17.8s-1.8-1.5-1.2-2.4c.6-.6,1.8.3,2.7.9,5.7,4.8,20.8,18.7,20.8,18.7.3,0,5.4,3.9,12.1-.3,2.4-1.5,3.9-3.6,3.9-6.3.3-3.9-3-6.6-3-6.6Z"/>
          <path class="cls-1" d="M157.1,198.2c-2.7,0-5.7,1.5-6,1.5s0-1.2.3-1.8,3.9-11.5-4.8-15.4c-6.6-3-10.9.3-12.1,1.8-.3.3-.6.3-.6,0,0-1.8-.9-7.3-6.9-9.1-8.5-2.7-13.6,3.3-15.1,5.4-.6-4.8-4.5-8.5-9.7-8.5s-9.7,4.2-9.7,9.7,4.2,9.7,9.7,9.7,4.8-.9,6.6-2.7v.3c-.3,2.4-1.2,11.2,7.9,14.5,3.6,1.5,6.6.3,9.4-1.5.9-.6.9-.3.9.3-.3,2.1,0,6.9,6.9,9.7,5.1,2.1,8.2,0,10-1.8.9-.9,1.2-.6,1.2.6.3,6.3,5.7,11.5,12.1,11.5s12.1-5.4,12.1-12.1-5.4-12.1-12.1-12.1h0Z"/>
        </g>
        <path class="cls-3" d="M244.5,171c-13.6-11.8-45-39.3-53.8-45.6-4.8-3.6-8.2-5.7-11.2-6.3-1.2-.3-3-.9-5.4-.9s-4.5.3-6.9,1.2c-5.4,1.8-10.9,6-16.3,10.3l-.3.3c-4.8,3.9-10,7.9-13.9,8.8-1.8.3-3.3.6-5.1.6-4.2,0-8.2-1.2-9.7-3-.3-.3,0-.9.6-1.5l12.1-13c9.4-9.4,18.1-18.1,38.7-18.7h.9c12.7,0,25.4,5.7,26.9,6.3,12.1,5.7,24.2,8.8,36.6,8.8s26.3-3.3,40.2-9.7c-1.5-1.2-3.3-2.7-4.8-3.9-12.4,5.4-23.9,7.9-35.3,7.9s-23-2.7-34.1-8.2c-.6-.3-14.5-6.9-29.3-6.9h-1.2c-17.2.3-26.9,6.3-33.2,11.8-6.3,0-11.8,1.8-16.6,3-4.2,1.2-8.2,2.1-11.8,2.1h-4.5c-4.2,0-25.4-5.1-42-11.8-1.8,1.2-3.3,2.4-5.1,3.6,17.5,7.3,39,12.7,45.6,13.3,1.8,0,3.9.3,6,.3,4.5,0,8.8-1.2,13.3-2.4,2.7-.6,5.4-1.5,8.2-2.1l-2.4,2.4-12.1,13.3c-.9.9-3,3.6-1.8,6.6.6,1.2,1.8,2.4,3.3,3.6,3,1.8,8.2,3.3,13,3.3s3.6-.3,5.1-.6c5.1-1.2,10.6-5.4,16-10,4.5-3.6,10.9-8.2,15.7-9.7,1.5-.3,3-.6,4.5-.6h1.2c3.3.3,6.3,1.5,12.1,5.7,10,7.6,54.4,46.2,54.7,46.5,0,0,2.7,2.4,2.7,6.6s-1.5,4.2-3.6,5.7c-1.8,1.2-3.9,1.8-5.7,1.8-3,0-5.1-1.5-5.1-1.5,0,0-15.4-13.9-20.8-18.7-.9-.9-1.8-1.5-2.7-1.5s-.9.3-1.2.6c-.9,1.2,0,2.7,1.2,3.6l17.8,17.8s2.1,2.1,2.4,4.8c0,3-1.2,5.4-4.2,7.3-2.1,1.5-4.2,2.1-6.3,2.1s-4.5-1.2-5.1-1.5l-2.7-2.4c-4.5-4.5-9.4-9.4-13-12.1-.9-.6-1.8-1.5-2.7-1.5s-.9,0-1.2.6c-.3.3-.6,1.2.3,2.7.3.6.9.9.9.9l13,14.5s2.7,3.3.3,6l-.6.6-1.2,1.2c-2.1,1.8-5.1,2.1-6.3,2.1h-1.8c-1.2-.3-2.1-.6-2.7-1.2-.6-.9-7.3-7.3-12.7-11.8-.6-.6-1.5-1.2-2.4-1.2s-.9.3-1.2.6c-.9,1.2.6,3,1.2,3.6l11.2,12.1s0,.3-.3.9-1.8,1.8-5.7,2.4h-1.5c-4.2,0-8.5-2.1-10.9-3.3.9-2.1,1.5-4.5,1.5-6.9,0-9.1-7.3-16.3-16.3-16.3h-.6c.3-4.2-.3-12.1-8.5-15.4-2.4-.9-4.5-1.5-6.9-1.5s-3.3.3-5.1.9c-1.8-3.3-4.5-5.7-8.2-6.9-2.1-.6-3.9-.9-6-.9-3.3,0-6.3.9-9.1,3-2.7-3.3-6.7-5.2-10.9-5.1-3.6,0-7.3,1.5-9.7,3.9-3.3-2.7-16.9-11.2-53.5-19.6-1.8-.3-5.7-1.5-8.2-2.4-.3,1.8-.6,3.9-.9,6,0,0,6.6,1.5,8.2,1.8,37.2,8.2,49.5,16.9,51.7,18.4-.6,1.8-.9,3.6-.9,5.4,0,7.9,6.3,13.9,13.9,13.9s1.8,0,2.7-.3c1.2,5.7,4.8,10,10.6,12.1,1.8.6,3.3.9,4.8.9s2.1,0,3.3-.3c.9,2.7,3.3,6,8.8,8.2,1.8.9,3.6,1.2,5.4,1.2s3-.3,4.2-.9c2.4,6,8.5,10.3,15.1,10.3s8.8-1.8,11.8-5.1c2.7,1.5,8.2,4.2,13.9,4.2h2.1c5.7-.6,8.2-3,9.4-4.5.3-.3.3-.6.6-.9,1.2.3,2.7.6,4.5.6,3,0,6-.9,9.1-3.3,3-2.1,5.1-5.1,5.1-7.9.9.3,2.1.3,3,.3,3,0,6.3-.9,9.4-3,5.7-3.6,6.6-8.8,6.6-11.8.9.3,2.1.3,3,.3,3,0,6-.9,8.8-2.7,3.6-2.4,5.7-5.7,6-9.7.3-2.7-.6-5.4-1.8-7.9,9.7-4.2,31.4-12.1,57.4-18.1,0-2.1-.3-3.9-.9-6-31.1,6.6-54.4,16.6-60.1,19.3h0ZM157.1,221.5c-6,0-10.9-4.8-11.2-10.9,0-.6,0-1.8-1.2-1.8s-.9.3-1.5.6c-1.2,1.2-3,2.4-5.4,2.4s-2.4-.3-3.6-.9c-6.3-2.7-6.6-6.9-6.3-8.8,0-.6,0-.9-.3-1.2l-.3-.3h-.3c-.3,0-.6,0-1.2.6-1.8,1.2-3.6,1.8-5.4,1.8s-2.1-.3-3-.6c-8.5-3.3-7.9-11.2-7.3-13.6,0-.6,0-.9-.3-1.2l-.6-.6-.6.6c-1.8,1.5-3.9,2.4-6,2.4-4.8,0-8.8-3.9-8.8-8.8s3.9-8.8,8.8-8.8,8.2,3.3,8.8,7.6l.3,2.4,1.2-2.1c0-.3,3.6-5.7,10.3-5.4,1.2,0,2.4.3,3.9.6,5.1,1.5,6,6.3,6,8.2s.9,1.2.9,1.2c.3,0,.9-.3.9-.6.9-.9,3-2.7,6.3-2.7s3,.3,4.8,1.2c8.2,3.6,4.5,13.9,4.5,14.2-.6,1.8-.9,2.4,0,3h.6c.3,0,.9,0,1.5-.3,1.2-.3,2.7-.9,4.2-.9,6,0,11.2,5.1,11.2,11.2.3,6.6-4.8,11.5-10.9,11.5h0Z"/>
      </g>
    </g>
  </g>
</svg>